<svg width="47" height="45" viewBox="0 0 47 45" fill="none" xmlns="http://www.w3.org/2000/svg">
<path d="M44.2586 33.7116L33.9696 23.6363C33.799 23.4777 33.5725 23.3893 33.3371 23.3893C33.1017 23.3893 32.8752 23.4777 32.7045 23.6363L30.6641 25.6314L28.2615 23.2872L34.0614 17.5862C36.4845 17.4615 39.7135 17.4714 39.8563 17.4515C40.4582 17.3617 41.6111 16.4539 45.5134 11.3215C45.6218 11.1764 45.6823 11.0024 45.6869 10.8228V8.51343C45.6865 8.35969 45.6448 8.20875 45.5661 8.0757C45.4873 7.94265 45.3742 7.83216 45.238 7.75529C45.102 7.67675 44.947 7.63532 44.7891 7.63532C44.6312 7.63532 44.4762 7.67675 44.3402 7.75529L40.2134 10.1494C39.8614 10.2591 38.3158 10.6133 36.9946 8.7728C35.5663 6.77769 36.2039 5.82004 37.1068 5.06689C38.455 4.12509 39.8548 3.25593 41.2999 2.46328C41.4304 2.38877 41.5398 2.2836 41.6181 2.15731C41.6965 2.03102 41.7414 1.88761 41.7488 1.74006C41.7545 1.59272 41.722 1.44638 41.6542 1.31468C41.5864 1.18297 41.4856 1.07021 41.3611 0.986907C41.2336 0.902115 38.127 -1.1279 32.7913 0.89214C28.6696 2.44832 28.0931 4.49829 28.0421 4.72773L27.1647 10.7879L21.3291 16.4988L16.1157 11.3864C16.3417 10.8307 16.4594 10.2386 16.4626 9.64067C16.4638 9.01965 16.3391 8.40455 16.0957 7.83095C15.8523 7.25734 15.495 6.73661 15.0445 6.29887C15.0018 6.25509 14.9539 6.21657 14.9017 6.18415L6.07163 0.567935C5.90101 0.457531 5.69663 0.408148 5.49306 0.428144C5.28949 0.44814 5.09923 0.536285 4.95449 0.677666L1.28678 4.26386C1.14219 4.40539 1.05204 4.59142 1.03159 4.79047C1.01114 4.98951 1.06165 5.18936 1.17456 5.35618L6.93372 13.975C6.96842 14.025 7.00769 14.0717 7.05104 14.1147C7.4977 14.5548 8.02947 14.9036 8.61536 15.1408C9.20126 15.378 9.82957 15.4989 10.4637 15.4963C11.0768 15.4973 11.6845 15.3838 12.2542 15.1621L17.4675 20.2746L11.0809 26.5192L4.95959 27.3672H4.89327C4.65862 27.422 2.56716 27.9806 0.970515 32.0157C-1.06993 37.2329 0.970515 40.2655 1.07254 40.3952C1.15687 40.5157 1.27045 40.6138 1.40309 40.6808C1.53574 40.7478 1.68331 40.7817 1.8326 40.7792C1.98269 40.774 2.12892 40.7314 2.25747 40.6555C2.38601 40.5795 2.4926 40.4728 2.56716 40.3453C3.37849 38.9327 4.26739 37.5641 5.22995 36.2454C6.00021 35.3625 6.99493 34.749 9.02518 36.1306C10.9126 37.4324 10.5555 38.9537 10.4331 39.2779L7.98455 43.313C7.90293 43.445 7.85879 43.596 7.85666 43.7502C7.85454 43.9045 7.8945 44.0565 7.97245 44.1907C8.0504 44.3248 8.1635 44.4362 8.30012 44.5134C8.43674 44.5906 8.59193 44.6307 8.74971 44.6298H11.1115C11.2963 44.6266 11.4751 44.5654 11.6216 44.4552C16.9778 40.5847 17.8297 39.4675 17.9011 38.9038C17.9011 38.7841 17.9011 35.6269 18.0286 33.2627L24.3999 27.0629L26.8281 29.4022L24.7876 31.3973C24.6207 31.5617 24.527 31.784 24.527 32.0157C24.527 32.2475 24.6207 32.4698 24.7876 32.6342L35.0919 42.7045C36.2492 43.8345 37.8178 44.4692 39.4533 44.4692C41.0888 44.4692 42.6575 43.8345 43.8148 42.7045L44.279 42.2506C44.853 41.6913 45.3085 41.0267 45.6193 40.2949C45.9301 39.5631 46.0901 38.7785 46.0901 37.9861C46.0901 37.1937 45.9301 36.4091 45.6193 35.6773C45.3085 34.9455 44.853 34.2809 44.279 33.7216L44.2586 33.7116ZM28.639 11.8203C28.7744 11.6843 28.862 11.5096 28.8889 11.3215L29.7918 5.11677C29.8479 4.97711 30.4448 3.67531 33.434 2.54309C35.1229 1.82462 36.9875 1.59608 38.8055 1.8847C37.813 2.44619 36.8573 3.06754 35.9438 3.74514C33.4901 5.80009 34.3675 8.1593 35.5306 9.78032C37.3517 12.3091 39.8614 12.1844 40.9275 11.7754C40.9684 11.7754 43.9015 10.0646 43.9015 10.0646V10.5634C42.2283 12.758 40.2134 15.197 39.5298 15.7357C38.3566 15.6759 35.0919 15.8305 33.6279 15.9103C33.4067 15.9206 33.1975 16.0113 33.0412 16.1647L27.0015 22.0402L25.4712 20.5439L31.2966 14.8229C31.3916 14.745 31.4689 14.6487 31.5237 14.54C31.5784 14.4312 31.6095 14.3126 31.6147 14.1915C31.62 14.0704 31.5995 13.9496 31.5544 13.8367C31.5093 13.7238 31.4406 13.6213 31.3528 13.5358C31.265 13.4503 31.1599 13.3836 31.0443 13.34C30.9286 13.2963 30.805 13.2767 30.6812 13.2824C30.5574 13.288 30.4361 13.3188 30.3252 13.3728C30.2142 13.4268 30.1159 13.5028 30.0367 13.596L24.1959 19.302L22.5941 17.7308L28.639 11.8203ZM10.4484 13.7506C9.67241 13.7543 8.92494 13.4648 8.36203 12.9426L3.06197 4.99706L5.70435 2.41341L13.8304 7.61065C14.3709 8.1759 14.6665 8.92388 14.655 9.69762C14.6436 10.4714 14.3261 11.2107 13.7692 11.7605L12.6011 12.9027C12.3187 13.1792 11.983 13.3983 11.6135 13.5472C11.2441 13.6962 10.848 13.7721 10.4484 13.7705V13.7506ZM16.5391 32.2701C16.3818 32.4205 16.2888 32.6238 16.279 32.8387C16.1973 34.2752 16.0392 37.4624 16.1055 38.6096C15.5546 39.2779 13.0449 41.2531 10.8106 42.8891H10.3005C10.3005 42.8891 12.0348 40.0311 12.0654 39.9812C12.499 38.9338 12.6317 36.4898 10.025 34.7041C8.36713 33.5669 5.9441 32.709 3.84754 35.1082C3.15511 36.0018 2.51967 36.9362 1.94483 37.9063C1.64921 36.1282 1.88479 34.3045 2.62328 32.6542C3.78633 29.7064 5.12282 29.1627 5.25545 29.0879L11.6267 28.2051C11.8197 28.1808 11.999 28.0949 12.1369 27.9607L18.7275 21.5065L20.3343 23.0727L13.8916 29.3772C13.8079 29.4576 13.7414 29.5534 13.6959 29.6592C13.6505 29.7649 13.6271 29.8785 13.6271 29.9932C13.6271 30.1079 13.6505 30.2215 13.6959 30.3272C13.7414 30.433 13.8079 30.5289 13.8916 30.6092C13.9738 30.6911 14.0718 30.7561 14.18 30.8005C14.2882 30.845 14.4043 30.8678 14.5216 30.8678C14.6389 30.8678 14.7551 30.845 14.8633 30.8005C14.9714 30.7561 15.0695 30.6911 15.1516 30.6092L21.5943 24.3097L23.1247 25.806L16.5391 32.2701ZM13.7743 14.1945L13.8661 14.1147L15.0292 12.9775L15.1108 12.8877L29.3939 26.8534L28.0574 28.1602L13.7743 14.1945ZM42.9986 41.0286L42.5344 41.4875C41.7104 42.2892 40.5953 42.7392 39.4329 42.7392C38.2705 42.7392 37.1554 42.2892 36.3314 41.4875L26.6648 32.0108L28.7053 30.0157L31.3068 27.4769L33.3473 25.4818L43.0394 34.9585C43.4459 35.3589 43.7675 35.8338 43.9856 36.3561C44.2037 36.8784 44.314 37.4377 44.3102 38.0019C44.3064 38.566 44.1886 39.1238 43.9635 39.6433C43.7384 40.1627 43.4105 40.6335 42.9986 41.0286Z" fill="#D9A95B"/>
<path d="M32.7888 30.2448C32.7066 30.1629 32.6086 30.0979 32.5004 30.0535C32.3922 30.0091 32.2761 29.9862 32.1588 29.9862C32.0414 29.9862 31.9253 30.0091 31.8171 30.0535C31.709 30.0979 31.6109 30.1629 31.5288 30.2448C31.3621 30.4084 31.2686 30.6299 31.2686 30.8608C31.2686 31.0917 31.3621 31.3132 31.5288 31.4768L39.1804 38.9584C39.2635 39.0397 39.3621 39.1041 39.4707 39.148C39.5792 39.192 39.6955 39.2146 39.813 39.2146C39.9305 39.2146 40.0468 39.192 40.1553 39.148C40.2638 39.1041 40.3625 39.0397 40.4455 38.9584C40.5286 38.8772 40.5945 38.7808 40.6394 38.6747C40.6844 38.5686 40.7075 38.4548 40.7075 38.34C40.7075 38.2251 40.6844 38.1114 40.6394 38.0052C40.5945 37.8991 40.5286 37.8027 40.4455 37.7215L32.7888 30.2448Z" fill="#D9A95B"/>
</svg>
