<svg width="44" height="44" viewBox="0 0 44 44" fill="none" xmlns="http://www.w3.org/2000/svg">
<g clip-path="url(#clip0_471_650)">
<path d="M42.5721 11.1993H23.9513C23.1639 11.1993 22.5234 11.8398 22.5234 12.6271V20.1736C22.5234 20.961 23.1639 21.6015 23.9513 21.6015H42.5721C43.3594 21.6015 43.9999 20.961 43.9999 20.1736V12.6271C44 11.8398 43.3595 11.1993 42.5721 11.1993ZM42.7109 12.6271V20.1735C42.7109 20.2501 42.6486 20.3123 42.5722 20.3123C22.9826 20.2472 23.8128 20.4465 23.8128 20.1735V12.6271C23.8128 12.5506 23.8751 12.4884 23.9515 12.4884C43.541 12.5534 42.7109 12.3541 42.7109 12.6271ZM31.3104 0H12.6896C11.9022 0 11.2617 0.640492 11.2617 1.42794V8.97437C11.2618 9.76173 11.9023 10.4022 12.6896 10.4022H31.3103C32.0977 10.4022 32.7381 9.76173 32.7381 8.97437V1.42794C32.7383 0.640492 32.0977 0 31.3104 0ZM31.4492 8.97437C31.4492 9.05085 31.3869 9.11307 31.3105 9.11307H12.6896C12.6131 9.11307 12.5508 9.05077 12.5508 8.97437V1.42794C12.5508 1.15483 11.7207 1.35412 31.3104 1.28915C31.3869 1.28915 31.4491 1.35145 31.4491 1.42794V8.97437H31.4492ZM42.5721 0H35.1207C34.3333 0 33.6928 0.640492 33.6928 1.42794V8.97437C33.6928 9.76173 34.3333 10.4022 35.1207 10.4022H42.5721C43.3594 10.4022 43.9999 9.76173 43.9999 8.97437V1.42794C44 0.640492 43.3595 0 42.5721 0ZM42.7109 8.97437C42.7109 9.05085 42.6486 9.11307 42.5722 9.11307H35.1208C35.0444 9.11307 34.9821 9.05077 34.9821 8.97437V1.42794C34.9821 1.35137 35.0445 1.28915 35.1208 1.28915H42.5722C42.6487 1.28915 42.7109 1.35145 42.7109 1.42794V8.97437ZM42.5721 22.3985H35.1207C34.3333 22.3985 33.6928 23.039 33.6928 23.8264V31.3729C33.6928 32.1602 34.3333 32.8007 35.1207 32.8007H42.5721C43.3594 32.8007 43.9999 32.1602 43.9999 31.3729V23.8264C44 23.039 43.3595 22.3985 42.5721 22.3985ZM42.7109 31.3729C42.7109 31.4493 42.6486 31.5116 42.5722 31.5116H35.1208C35.0444 31.5116 34.9821 31.4493 34.9821 31.3729V23.8264C34.9821 23.7499 35.0445 23.6876 35.1208 23.6876H42.5722C42.6487 23.6876 42.7109 23.7499 42.7109 23.8264V31.3729ZM8.87941 22.3985H1.42802C0.640578 22.3985 0 23.039 0 23.8264V31.3729C0 32.1602 0.640492 32.8007 1.42794 32.8007H8.87932C9.66677 32.8007 10.3073 32.1602 10.3073 31.3729V23.8264C10.3073 23.039 9.66677 22.3985 8.87941 22.3985ZM9.0182 31.3729C9.0182 31.4493 8.95598 31.5116 8.87941 31.5116H1.42802C1.35154 31.5116 1.28923 31.4493 1.28923 31.3729V23.8264C1.28923 23.7499 1.35154 23.6876 1.42802 23.6876H8.87941C8.95598 23.6876 9.0182 23.7499 9.0182 23.8264V31.3729ZM20.0487 11.1993H1.42802C0.640578 11.1993 0 11.8398 0 12.6271V20.1736C0 20.961 0.640492 21.6015 1.42794 21.6015H20.0486C20.8361 21.6015 21.4766 20.961 21.4766 20.1736V12.6271C21.4766 11.8398 20.8361 11.1993 20.0487 11.1993ZM20.1875 20.1736C20.1875 20.2501 20.1252 20.3124 20.0487 20.3124C0.458992 20.2473 1.28923 20.4465 1.28923 20.1735V12.6271C1.28923 12.3542 0.458992 12.5534 20.0487 12.4884C20.1252 12.4884 20.1875 12.5507 20.1875 12.6271V20.1736ZM42.5721 33.5978H23.9513C23.1639 33.5978 22.5234 34.2383 22.5234 35.0256V42.5721C22.5234 43.3595 23.1639 44 23.9513 44H42.5721C43.3594 44 43.9999 43.3595 43.9999 42.5721V35.0256C44 34.2383 43.3595 33.5978 42.5721 33.5978ZM42.7109 42.572C42.7109 42.6485 42.6486 42.7108 42.5722 42.7108C22.9826 42.6457 23.8128 42.845 23.8128 42.572V35.0255C23.8128 34.7526 22.9826 34.9518 42.5722 34.8868C42.6487 34.8868 42.7109 34.9492 42.7109 35.0255V42.572ZM20.0487 33.5978H1.42802C0.640578 33.5978 0 34.2383 0 35.0257V42.5721C0 43.3595 0.640578 44 1.42802 44H3.64977C3.82071 44 3.98464 43.9321 4.10552 43.8112C4.22639 43.6903 4.2943 43.5264 4.2943 43.3555C4.2943 43.1845 4.22639 43.0206 4.10552 42.8997C3.98464 42.7788 3.82071 42.7109 3.64977 42.7109H1.42802C1.35154 42.7109 1.28923 42.6486 1.28923 42.5722V35.0258C1.28923 34.9492 1.35154 34.887 1.42802 34.887C21.0176 34.9521 20.1875 34.7528 20.1875 35.0258V42.5722C20.1875 42.8455 20.6164 42.6467 6.65766 42.7109C6.48672 42.7109 6.32278 42.7788 6.20191 42.8997C6.08104 43.0206 6.01313 43.1845 6.01313 43.3555C6.01313 43.5264 6.08104 43.6903 6.20191 43.8112C6.32278 43.9321 6.48672 44 6.65766 44H20.0486C20.8361 44 21.4766 43.3595 21.4766 42.5721V35.0257C21.4766 34.2383 20.836 33.5978 20.0487 33.5978ZM31.3104 22.3985H28.8568C28.5007 22.3985 28.2122 22.687 28.2122 23.043C28.2122 23.3991 28.5007 23.6876 28.8568 23.6876H31.3104C31.3869 23.6876 31.4491 23.7499 31.4491 23.8263V31.3728C31.4491 31.6457 32.2793 31.4464 12.6897 31.5115C12.6132 31.5115 12.5509 31.4492 12.5509 31.3728V23.8263C12.551 23.5528 12.1444 23.7517 25.8489 23.6876C26.2049 23.6876 26.4934 23.3991 26.4934 23.043C26.4934 22.687 26.2049 22.3985 25.8489 22.3985H12.6896C11.9022 22.3985 11.2617 23.039 11.2617 23.8264V31.3729C11.2617 32.1602 11.9022 32.8007 12.6896 32.8007H31.3103C32.0977 32.8007 32.7381 32.1602 32.7381 31.3729V23.8264C32.7382 23.039 32.0977 22.3985 31.3104 22.3985ZM8.87932 0H1.42802C0.640578 0 0 0.640492 0 1.42794V3.69712C0 3.86806 0.0679058 4.032 0.188779 4.15287C0.309652 4.27374 0.473591 4.34165 0.644531 4.34165C0.815472 4.34165 0.979411 4.27374 1.10028 4.15287C1.22116 4.032 1.28906 3.86806 1.28906 3.69712V1.42794C1.28906 1.35145 1.35137 1.28915 1.42785 1.28915H8.87923C8.9558 1.28915 9.01802 1.35145 9.01802 1.42794V8.97428C9.01802 9.05085 8.9558 9.11307 8.87923 9.11307H1.42802C1.35154 9.11307 1.28923 9.05077 1.28923 8.97428V6.70519C1.28923 6.53425 1.22133 6.37031 1.10046 6.24943C0.979582 6.12856 0.815643 6.06066 0.644703 6.06066C0.473763 6.06066 0.309824 6.12856 0.188951 6.24943C0.0680777 6.37031 0.000171875 6.53425 0.000171875 6.70519V8.97437C0.000171875 9.76181 0.640664 10.4023 1.42811 10.4023H8.87949C9.66694 10.4023 10.3074 9.76181 10.3074 8.97437V1.42794C10.3073 0.640492 9.66668 0 8.87932 0Z" fill="#D9A95B"/>
</g>
<defs>
<clipPath id="clip0_471_650">
<rect width="44" height="44" fill="white"/>
</clipPath>
</defs>
</svg>
