<svg width="123" height="63" viewBox="0 0 123 63" fill="none" xmlns="http://www.w3.org/2000/svg">
<circle cx="1.5" cy="1.5" r="1.5" fill="#666666"/>
<circle cx="21.5" cy="1.5" r="1.5" fill="#666666"/>
<circle cx="41.5" cy="1.5" r="1.5" fill="#666666"/>
<circle cx="61.5" cy="1.5" r="1.5" fill="#666666"/>
<circle cx="81.5" cy="1.5" r="1.5" fill="#666666"/>
<circle cx="101.5" cy="1.5" r="1.5" fill="#666666"/>
<circle cx="121.5" cy="1.5" r="1.5" fill="#666666"/>
<circle cx="1.5" cy="21.5" r="1.5" fill="#666666"/>
<circle cx="21.5" cy="21.5" r="1.5" fill="#666666"/>
<circle cx="41.5" cy="21.5" r="1.5" fill="#666666"/>
<circle cx="61.5" cy="21.5" r="1.5" fill="#666666"/>
<circle cx="81.5" cy="21.5" r="1.5" fill="#666666"/>
<circle cx="101.5" cy="21.5" r="1.5" fill="#666666"/>
<circle cx="121.5" cy="21.5" r="1.5" fill="#666666"/>
<circle cx="1.5" cy="41.5" r="1.5" fill="#666666"/>
<circle cx="21.5" cy="41.5" r="1.5" fill="#666666"/>
<circle cx="41.5" cy="41.5" r="1.5" fill="#666666"/>
<circle cx="61.5" cy="41.5" r="1.5" fill="#666666"/>
<circle cx="81.5" cy="41.5" r="1.5" fill="#666666"/>
<circle cx="101.5" cy="41.5" r="1.5" fill="#666666"/>
<circle cx="121.5" cy="41.5" r="1.5" fill="#666666"/>
<circle cx="1.5" cy="61.5" r="1.5" fill="#666666"/>
<circle cx="21.5" cy="61.5" r="1.5" fill="#666666"/>
<circle cx="41.5" cy="61.5" r="1.5" fill="#666666"/>
<circle cx="61.5" cy="61.5" r="1.5" fill="#666666"/>
<circle cx="81.5" cy="61.5" r="1.5" fill="#666666"/>
<circle cx="101.5" cy="61.5" r="1.5" fill="#666666"/>
<circle cx="121.5" cy="61.5" r="1.5" fill="#666666"/>
</svg>
