<svg width="34" height="76" viewBox="0 0 34 76" fill="none" xmlns="http://www.w3.org/2000/svg">
<rect x="0.5" y="0.5" width="33" height="75" rx="16.5" stroke="#A3A3A3"/>
<rect x="10.7637" y="7.70691" width="11.8302" height="18" rx="5.91509" stroke="#A3A3A3"/>
<rect x="16.6797" y="31.4484" width="1.28302" height="5.24138" rx="0.641509" fill="#A3A3A3"/>
<path d="M17.3195 64.2331C16.9526 64.2331 16.6523 63.9264 16.6523 63.5517V49.3756C16.6523 49.0008 16.9526 48.6942 17.3195 48.6942C17.6865 48.6942 17.9867 49.0008 17.9867 49.3756V63.5517C17.9867 63.9264 17.6865 64.2331 17.3195 64.2331Z" fill="#666666"/>
<path d="M17.3195 43.8701C17.688 43.8701 17.9867 43.565 17.9867 43.1887C17.9867 42.8124 17.688 42.5073 17.3195 42.5073C16.951 42.5073 16.6523 42.8124 16.6523 43.1887C16.6523 43.565 16.951 43.8701 17.3195 43.8701Z" fill="#666666"/>
<path d="M17.3195 46.9636C17.688 46.9636 17.9867 46.6585 17.9867 46.2822C17.9867 45.9059 17.688 45.6008 17.3195 45.6008C16.951 45.6008 16.6523 45.9059 16.6523 46.2822C16.6523 46.6585 16.951 46.9636 17.3195 46.9636Z" fill="#666666"/>
<path d="M17.3201 64.2331C17.1667 64.2331 17.0132 64.1785 16.8865 64.0695L11.6759 59.5452C11.3956 59.3033 11.3623 58.8706 11.5991 58.5844C11.8393 58.2982 12.2596 58.2642 12.5398 58.5061L17.3201 62.6591L22.1004 58.5095C22.3806 58.2642 22.8009 58.3016 23.0411 58.5878C23.2813 58.874 23.2446 59.3033 22.9644 59.5486L17.7538 64.0695C17.627 64.1785 17.4736 64.2331 17.3201 64.2331Z" fill="#666666"/>
<path d="M17.3201 68.4918C17.1667 68.4918 17.0132 68.4373 16.8865 68.3282L11.6759 63.8039C11.3956 63.562 11.3623 63.1293 11.5991 62.8431C11.8393 62.557 12.2596 62.5195 12.5398 62.7648L17.3201 66.9178L22.1004 62.7682C22.3806 62.5229 22.8009 62.5604 23.0411 62.8465C23.2813 63.1327 23.2446 63.562 22.9644 63.8073L17.7538 68.3282C17.627 68.4373 17.4736 68.4918 17.3201 68.4918Z" fill="#666666"/>
</svg>
