<svg width="118" height="48" viewBox="0 0 118 48" fill="none" xmlns="http://www.w3.org/2000/svg">
<path d="M118.001 39.4893H111.832V13H118.001V39.4893Z" fill="white"/>
<path d="M106.007 39.4893H99.838V13H106.007V39.4893Z" fill="white"/>
<path d="M88.0481 34.5013V30.5177C87.2142 30.5858 86.3117 30.6823 85.3408 30.8071C84.3698 30.9206 83.633 31.0568 83.1304 31.2157C82.5135 31.4086 82.0394 31.6923 81.7082 32.0669C81.3883 32.4301 81.2284 32.9124 81.2284 33.5139C81.2284 33.9111 81.2627 34.2346 81.3312 34.4843C81.3997 34.734 81.5711 34.9723 81.8453 35.1993C82.108 35.4263 82.4221 35.5965 82.7877 35.71C83.1532 35.8121 83.7244 35.8632 84.5012 35.8632C85.118 35.8632 85.7406 35.7384 86.3689 35.4887C87.0086 35.239 87.5683 34.9099 88.0481 34.5013ZM88.0481 37.4635C87.7168 37.7131 87.3056 38.0139 86.8144 38.3657C86.3232 38.7176 85.8605 38.9956 85.4264 39.1999C84.821 39.4723 84.1927 39.6709 83.5416 39.7957C82.8905 39.9319 82.1765 40 81.3997 40C79.572 40 78.0413 39.4382 76.8076 38.3147C75.5739 37.1911 74.957 35.7554 74.957 34.0076C74.957 32.6116 75.2712 31.471 75.8994 30.5858C76.5277 29.7005 77.4187 29.0026 78.5725 28.4918C79.7148 27.9811 81.1313 27.618 82.8219 27.4023C84.5126 27.1867 86.2661 27.0278 88.0824 26.9256V26.8235C88.0824 25.768 87.6483 25.0417 86.7801 24.6444C85.9119 24.2359 84.6325 24.0316 82.9419 24.0316C81.9252 24.0316 80.84 24.2132 79.6863 24.5763C78.5325 24.9282 77.7043 25.2006 77.2017 25.3935H76.6362V20.78C77.2874 20.6098 78.344 20.4111 79.8062 20.1842C81.2798 19.9458 82.7534 19.8267 84.227 19.8267C87.7339 19.8267 90.2642 20.3658 91.8178 21.4439C93.3827 22.5108 94.1652 24.1905 94.1652 26.483V39.4893H88.0481V37.4635Z" fill="white"/>
<path d="M72.3369 14.1406L65.4658 39.4893H58.1835L53.6085 22.9761L49.1534 39.4893H41.8711L35 14.1406H41.8711L45.795 31.5902L50.4899 14.1406H57.0526L61.5248 31.5902L65.6372 14.1406H72.3369Z" fill="white"/>
<path d="M12.8979 3.28855V8.57704C12.8979 9.16177 12.4248 9.63525 11.8347 9.63525H2.20605V3.69476C2.20605 2.88751 2.86373 2.23292 3.67479 2.23292H11.8347C12.4248 2.23033 12.8979 2.7064 12.8979 3.28855ZM24.7335 4.84612C22.3264 3.20834 19.142 2.34159 15.1803 2.24327C14.6552 2.30537 14.2497 2.75039 14.2497 3.29114V8.57962C14.2497 9.16436 14.7254 9.63784 15.3155 9.63784H28.0843C28.1207 9.63784 28.1545 9.63784 28.1909 9.63007C27.6398 7.63266 26.4882 6.03887 24.7335 4.84612ZM21.349 17.0635V11.7776C21.349 11.1928 20.8732 10.7193 20.2857 10.7193H7.51428C6.92679 10.7193 6.45108 11.1928 6.45108 11.7776V17.0635C6.45108 17.6482 6.92679 18.1217 7.51428 18.1217H20.2857C20.8732 18.1217 21.349 17.6482 21.349 17.0635ZM28.4275 10.7219H23.8289C23.2414 10.7219 22.7657 11.1928 22.7657 11.7801V17.0635C22.7657 17.6482 23.2414 18.1217 23.8289 18.1217H27.2577C28.1337 16.5874 28.573 14.7556 28.573 12.6288C28.573 11.9613 28.5262 11.3274 28.4275 10.7219ZM3.97373 10.7219H2.20605V18.1217H3.97113C4.55862 18.1217 5.03434 17.6482 5.03434 17.0635V11.7801C5.03434 11.1928 4.55862 10.7219 3.97373 10.7219ZM11.8347 19.2083H2.20605V26.6107H11.8347C12.4248 26.6107 12.8979 26.1372 12.8979 25.5499V20.2666C12.8979 19.6818 12.4248 19.2083 11.8347 19.2083ZM28.2325 25.1333C27.0315 23.7776 25.4926 22.6676 23.6157 21.8008C24.7595 21.0971 25.7292 20.2355 26.5246 19.2083H15.3181C14.728 19.2083 14.2523 19.6818 14.2523 20.2666V25.5499C14.2523 26.1372 14.728 26.6107 15.3181 26.6107H28.0869C28.4691 26.6107 28.8044 26.4089 28.9916 26.1061C28.7654 25.7724 28.5106 25.449 28.2325 25.1333ZM21.349 34.0389V28.753C21.349 28.1682 20.8732 27.6948 20.2857 27.6948H7.51428C6.92679 27.6948 6.45108 28.1682 6.45108 28.753V34.0389C6.45108 34.6236 6.92679 35.0971 7.51428 35.0971H20.2857C20.8732 35.0971 21.349 34.6236 21.349 34.0389ZM29.8442 27.6948H23.8289C23.2414 27.6948 22.7657 28.1682 22.7657 28.753V34.0415C22.7657 34.6262 23.2414 35.0997 23.8289 35.0997H30.1068C30.4031 33.9949 30.5513 32.7607 30.5513 31.4024C30.5487 30.0622 30.3147 28.8254 29.8442 27.6948ZM3.97373 27.6948H2.20605V35.0971H3.97113C4.55862 35.0971 5.03434 34.6236 5.03434 34.0389V28.7504C5.03434 28.1682 4.55862 27.6948 3.97373 27.6948ZM11.8321 36.1812H2.20605V42.1217C2.20605 42.9289 2.86373 43.5835 3.67479 43.5835H11.8347C12.4248 43.5835 12.8979 43.11 12.8979 42.5253V37.242C12.8979 36.6572 12.4222 36.1812 11.8321 36.1812ZM28.0869 36.1812H15.3181C14.728 36.1812 14.2523 36.6547 14.2523 37.242V42.5253C14.2523 43.11 14.728 43.5835 15.3181 43.5835H16.4982C18.1801 43.555 19.8152 43.3403 21.4035 42.9444C23.1322 42.5149 24.6867 41.8215 26.0619 40.8668C27.3331 39.9794 28.3677 38.8384 29.1501 37.4412V37.2394C29.1501 36.6547 28.6718 36.1812 28.0869 36.1812Z" fill="#D9A95B"/>
<path d="M11.8347 2.73993C12.1388 2.73993 12.3858 2.98572 12.3858 3.28844V8.57693C12.3858 8.87964 12.1388 9.12544 11.8347 9.12544H2.71556V3.69206C2.71556 3.16684 3.14448 2.73734 3.67479 2.73734H11.8347M15.2115 2.75028C19.0354 2.85118 22.1418 3.69724 24.4476 5.26515C25.8981 6.25092 26.9223 7.54717 27.4994 9.12544H15.3181C15.0113 9.12544 14.7618 8.87964 14.7618 8.57693V3.28844C14.7618 3.02195 14.9515 2.79685 15.2115 2.75028ZM20.2857 11.2289C20.5899 11.2289 20.8394 11.4747 20.8394 11.78V17.0659C20.8394 17.3686 20.5925 17.617 20.2857 17.617H7.51428C7.21014 17.617 6.96059 17.3712 6.96059 17.0659V11.7774C6.96059 11.4747 7.20754 11.2263 7.51428 11.2263H20.2857M27.9829 11.2289C28.0349 11.674 28.0635 12.1423 28.0635 12.6287C28.0635 14.5355 27.6918 16.2095 26.9561 17.6119H23.8289C23.5248 17.6119 23.2778 17.3661 23.2778 17.0633V11.78C23.2778 11.4773 23.5248 11.2315 23.8289 11.2315H27.9829M3.97373 11.2289C4.27788 11.2289 4.52483 11.4747 4.52483 11.7774V17.0608C4.52483 17.3635 4.27788 17.6093 3.97373 17.6093H2.71816V11.2289H3.97373ZM25.412 19.7153C24.8089 20.3389 24.1174 20.8926 23.3454 21.3686L22.5395 21.8654L23.3974 22.2639C25.2041 23.0996 26.7014 24.1785 27.8478 25.4721C28.0141 25.661 28.1727 25.8525 28.3209 26.0517C28.2481 26.0853 28.1675 26.106 28.0843 26.106H15.3181C15.0113 26.106 14.7618 25.8577 14.7618 25.5523V20.2664C14.7618 19.9637 15.0113 19.7179 15.3181 19.7179H25.412M11.8347 19.7153C12.1388 19.7153 12.3858 19.9611 12.3858 20.2639V25.5472C12.3858 25.8525 12.1388 26.1009 11.8347 26.1009H2.71556V19.7153H11.8347ZM29.4959 28.2018C29.8546 29.1824 30.0392 30.2561 30.0392 31.3997C30.0392 32.5588 29.9274 33.63 29.7064 34.5899H23.8289C23.5248 34.5899 23.2778 34.3441 23.2778 34.0414V28.7529C23.2778 28.4501 23.5248 28.2044 23.8289 28.2044H29.4959M3.97373 28.2018C4.27788 28.2018 4.52483 28.4476 4.52483 28.7503V34.0388C4.52483 34.3415 4.27788 34.5873 3.97373 34.5873H2.71816V28.2018H3.97373ZM20.2857 28.2044C20.5899 28.2044 20.8394 28.4501 20.8394 28.7555V34.0414C20.8394 34.3441 20.5925 34.5924 20.2857 34.5924H7.51428C7.21014 34.5924 6.96059 34.3467 6.96059 34.0414V28.7555C6.96059 28.4527 7.20754 28.2044 7.51428 28.2044H20.2857ZM28.0869 36.6882C28.3911 36.6882 28.638 36.9366 28.638 37.2419V37.3091C27.905 38.5769 26.9405 39.6326 25.7681 40.4501C24.4528 41.3661 22.9425 42.0388 21.2814 42.4527C19.7243 42.8382 18.1125 43.0478 16.4982 43.0763H15.3181C15.0113 43.0763 14.7618 42.8305 14.7618 42.5278V37.2445C14.7618 36.9392 15.0113 36.6908 15.3181 36.6908H28.0869M11.8321 36.6882C12.1388 36.6882 12.3884 36.9366 12.3884 37.2419V42.5252C12.3884 42.8279 12.1414 43.0737 11.8373 43.0737H3.67479C3.14708 43.0737 2.71556 42.6468 2.71556 42.119V36.6856H11.8321M11.8347 2.23022H3.67479C2.86373 2.23022 2.20605 2.88482 2.20605 3.69206V9.63255H11.8347C12.4248 9.63255 12.8979 9.15907 12.8979 8.57434V3.28844C12.8979 2.70629 12.4248 2.23022 11.8347 2.23022ZM15.1803 2.24316C14.6552 2.30526 14.2497 2.75028 14.2497 3.29103V8.57951C14.2497 9.16425 14.7254 9.63773 15.3155 9.63773H28.0843C28.1207 9.63773 28.1545 9.63773 28.1909 9.62997C27.6372 7.63514 26.4882 6.04135 24.7309 4.84859C22.3264 3.20823 19.142 2.34148 15.1803 2.24316ZM20.2857 10.7192H7.51428C6.92679 10.7192 6.45108 11.1927 6.45108 11.7774V17.0633C6.45108 17.6481 6.92679 18.1216 7.51428 18.1216H20.2857C20.8732 18.1216 21.349 17.6481 21.349 17.0633V11.7774C21.349 11.1927 20.8732 10.7192 20.2857 10.7192ZM28.4275 10.7218H23.8289C23.2414 10.7218 22.7657 11.1927 22.7657 11.78V17.0633C22.7657 17.6481 23.2414 18.1216 23.8289 18.1216H27.2577C28.1337 16.5873 28.573 14.7555 28.573 12.6287C28.573 11.9611 28.5262 11.3272 28.4275 10.7218ZM3.97373 10.7218H2.20605V18.1216H3.97113C4.55862 18.1216 5.03434 17.6481 5.03434 17.0633V11.78C5.03434 11.1927 4.55862 10.7218 3.97373 10.7218ZM26.5246 19.2082H15.3181C14.728 19.2082 14.2523 19.6817 14.2523 20.2664V25.5498C14.2523 26.1371 14.728 26.6106 15.3181 26.6106H28.0869C28.4691 26.6106 28.8044 26.4088 28.9916 26.106C28.7654 25.7697 28.5106 25.4463 28.2325 25.1332C27.0315 23.7774 25.4926 22.6675 23.6157 21.8007C24.7595 21.097 25.7318 20.2354 26.5246 19.2082ZM11.8347 19.2082H2.20605V26.6106H11.8347C12.4248 26.6106 12.8979 26.1371 12.8979 25.5498V20.2664C12.8979 19.6817 12.4248 19.2082 11.8347 19.2082ZM29.8442 27.6946H23.8289C23.2414 27.6946 22.7657 28.1681 22.7657 28.7529V34.0414C22.7657 34.6261 23.2414 35.0996 23.8289 35.0996H30.1068C30.4031 33.9948 30.5513 32.7606 30.5513 31.4023C30.5487 30.062 30.3147 28.8253 29.8442 27.6946ZM3.97373 27.6946H2.20605V35.097H3.97113C4.55862 35.097 5.03434 34.6235 5.03434 34.0388V28.7503C5.03434 28.1681 4.55862 27.6946 3.97373 27.6946ZM20.2857 27.6946H7.51428C6.92679 27.6946 6.45108 28.1681 6.45108 28.7529V34.0388C6.45108 34.6235 6.92679 35.097 7.51428 35.097H20.2857C20.8732 35.097 21.349 34.6235 21.349 34.0388V28.7529C21.349 28.1681 20.8732 27.6946 20.2857 27.6946ZM28.0869 36.1811H15.3181C14.728 36.1811 14.2523 36.6545 14.2523 37.2419V42.5252C14.2523 43.1099 14.728 43.5834 15.3181 43.5834H16.4982C18.1801 43.5549 19.8152 43.3402 21.4035 42.9443C23.1322 42.5148 24.6867 41.8214 26.0619 40.8667C27.3331 39.9793 28.3677 38.8382 29.1501 37.4411V37.2393C29.1501 36.6545 28.6718 36.1811 28.0869 36.1811ZM11.8321 36.1811H2.20605V42.1216C2.20605 42.9288 2.86373 43.5834 3.67479 43.5834H11.8347C12.4248 43.5834 12.8979 43.1099 12.8979 42.5252V37.2419C12.8979 36.6571 12.4222 36.1811 11.8321 36.1811Z" fill="#1A1A1A"/>
</svg>
